<?xml version="1.0" encoding="UTF-8"?>
<!-- Generator: Adobe Illustrator 16.0.0, SVG Export Plug-In . SVG Version: 6.00 Build 0)  -->
<svg width="700" height="555" enable-background="new 0 0 555.166 555.166" version="1.1" viewBox="0 0 700 555" xml:space="preserve" xmlns="http://www.w3.org/2000/svg">
<g fill="#d40000">
	<path d="m294.2 61.183v-12.424c0-9.18-7.439-16.619-16.619-16.619s-16.619 7.439-16.619 16.619v12.424c-138.75 7.004-250.12 101.1-260.96 219.46 13.491-9.683 33.959-15.864 56.882-15.864 35.673 0 65.396 14.96 72.121 34.81h2.958c6.896-19.721 36.53-34.551 72.046-34.551 22.991 0 43.466 6.236 56.957 15.966v166.67c0 23.216-18.891 42.105-42.105 42.105-23.215 0-42.106-18.89-42.106-42.105 0-9.18-7.439-16.619-16.619-16.619s-16.619 7.439-16.619 16.619c0 41.548 33.803 75.352 75.351 75.352s75.337-33.804 75.337-75.352v-166.94c13.484-9.724 33.952-15.953 56.93-15.953 35.673 0 65.396 14.96 72.121 34.81h2.958c6.895-19.721 36.529-34.551 72.046-34.551 22.937 0 43.418 6.188 56.909 15.885-10.69-118.5-122.12-212.72-260.96-219.74z" fill="#d40000"/>
</g>















</svg>
